<mxfile host="Electron" modified="2024-08-09T09:49:05.451Z" agent="Mozilla/5.0 (X11; Linux x86_64) AppleWebKit/537.36 (KHTML, like Gecko) draw.io/24.2.5 Chrome/120.0.6099.109 Electron/28.1.0 Safari/537.36" etag="cSOd0fJAl7a_xttAn25N" version="24.2.5" type="device">
  <diagram name="Page-1" id="G8ZvJWXJsHYqm7BaVf0D">
    <mxGraphModel dx="1420" dy="821" grid="1" gridSize="10" guides="1" tooltips="1" connect="1" arrows="1" fold="1" page="1" pageScale="1" pageWidth="850" pageHeight="1100" math="0" shadow="0">
      <root>
        <mxCell id="0" />
        <mxCell id="1" parent="0" />
        <mxCell id="Y1ht0l0qpF1LJEd9NI-s-3" value="" style="group" vertex="1" connectable="0" parent="1">
          <mxGeometry x="240" y="200" width="80" height="40" as="geometry" />
        </mxCell>
        <mxCell id="Y1ht0l0qpF1LJEd9NI-s-1" value="1" style="rounded=0;whiteSpace=wrap;html=1;shadow=0;strokeColor=#6c8ebf;strokeWidth=1;fontFamily=Ubuntu;fontSize=16;fontStyle=0;fillColor=#dae8fc;" vertex="1" parent="Y1ht0l0qpF1LJEd9NI-s-3">
          <mxGeometry width="40" height="40" as="geometry" />
        </mxCell>
        <mxCell id="Y1ht0l0qpF1LJEd9NI-s-2" value="" style="rounded=0;whiteSpace=wrap;html=1;shadow=0;strokeColor=#b85450;strokeWidth=1;fontFamily=Ubuntu;fontSize=16;fontStyle=0;fillColor=#f8cecc;" vertex="1" parent="Y1ht0l0qpF1LJEd9NI-s-3">
          <mxGeometry x="40" width="40" height="40" as="geometry" />
        </mxCell>
        <mxCell id="Y1ht0l0qpF1LJEd9NI-s-4" value="" style="group;fillColor=#f8cecc;strokeColor=#b85450;" vertex="1" connectable="0" parent="1">
          <mxGeometry x="360" y="200" width="80" height="40" as="geometry" />
        </mxCell>
        <mxCell id="Y1ht0l0qpF1LJEd9NI-s-5" value="2" style="rounded=0;whiteSpace=wrap;html=1;shadow=0;strokeColor=#6c8ebf;strokeWidth=1;fontFamily=Ubuntu;fontSize=16;fontStyle=0;fillColor=#dae8fc;" vertex="1" parent="Y1ht0l0qpF1LJEd9NI-s-4">
          <mxGeometry width="40" height="40" as="geometry" />
        </mxCell>
        <mxCell id="Y1ht0l0qpF1LJEd9NI-s-6" value="" style="rounded=0;whiteSpace=wrap;html=1;shadow=0;strokeColor=#b85450;strokeWidth=1;fontFamily=Ubuntu;fontSize=16;fontStyle=0;fillColor=#f8cecc;" vertex="1" parent="Y1ht0l0qpF1LJEd9NI-s-4">
          <mxGeometry x="40" width="40" height="40" as="geometry" />
        </mxCell>
        <mxCell id="Y1ht0l0qpF1LJEd9NI-s-7" value="" style="group" vertex="1" connectable="0" parent="1">
          <mxGeometry x="480" y="200" width="80" height="40" as="geometry" />
        </mxCell>
        <mxCell id="Y1ht0l0qpF1LJEd9NI-s-8" value="3" style="rounded=0;whiteSpace=wrap;html=1;shadow=0;strokeColor=#6c8ebf;strokeWidth=1;fontFamily=Ubuntu;fontSize=16;fontStyle=0;fillColor=#dae8fc;" vertex="1" parent="Y1ht0l0qpF1LJEd9NI-s-7">
          <mxGeometry width="40" height="40" as="geometry" />
        </mxCell>
        <mxCell id="Y1ht0l0qpF1LJEd9NI-s-9" value="" style="rounded=0;whiteSpace=wrap;html=1;shadow=0;strokeColor=#b85450;strokeWidth=1;fontFamily=Ubuntu;fontSize=16;fontStyle=0;fillColor=#f8cecc;" vertex="1" parent="Y1ht0l0qpF1LJEd9NI-s-7">
          <mxGeometry x="40" width="40" height="40" as="geometry" />
        </mxCell>
        <mxCell id="Y1ht0l0qpF1LJEd9NI-s-10" value="" style="group" vertex="1" connectable="0" parent="1">
          <mxGeometry x="600" y="200" width="80" height="40" as="geometry" />
        </mxCell>
        <mxCell id="Y1ht0l0qpF1LJEd9NI-s-11" value="4" style="rounded=0;whiteSpace=wrap;html=1;shadow=0;strokeColor=#6c8ebf;strokeWidth=1;fontFamily=Ubuntu;fontSize=16;fontStyle=0;fillColor=#dae8fc;" vertex="1" parent="Y1ht0l0qpF1LJEd9NI-s-10">
          <mxGeometry width="40" height="40" as="geometry" />
        </mxCell>
        <mxCell id="Y1ht0l0qpF1LJEd9NI-s-12" value="" style="rounded=0;whiteSpace=wrap;html=1;shadow=0;strokeColor=#b85450;strokeWidth=1;fontFamily=Ubuntu;fontSize=16;fontStyle=0;fillColor=#f8cecc;" vertex="1" parent="Y1ht0l0qpF1LJEd9NI-s-10">
          <mxGeometry x="40" width="40" height="40" as="geometry" />
        </mxCell>
        <mxCell id="Y1ht0l0qpF1LJEd9NI-s-15" value="NULL" style="text;html=1;align=center;verticalAlign=middle;whiteSpace=wrap;rounded=0;fontFamily=Ubuntu;fontSize=16;fontStyle=0;" vertex="1" parent="1">
          <mxGeometry x="620" y="280" width="80" height="40" as="geometry" />
        </mxCell>
        <mxCell id="Y1ht0l0qpF1LJEd9NI-s-16" style="edgeStyle=orthogonalEdgeStyle;rounded=1;orthogonalLoop=1;jettySize=auto;html=1;entryX=0.5;entryY=0;entryDx=0;entryDy=0;shadow=0;strokeColor=#6c8ebf;strokeWidth=1;fontFamily=Ubuntu;fontSize=14;fontStyle=0;endArrow=block;endFill=1;fillColor=#dae8fc;" edge="1" parent="1" source="Y1ht0l0qpF1LJEd9NI-s-12" target="Y1ht0l0qpF1LJEd9NI-s-15">
          <mxGeometry relative="1" as="geometry" />
        </mxCell>
        <mxCell id="Y1ht0l0qpF1LJEd9NI-s-17" style="edgeStyle=orthogonalEdgeStyle;rounded=1;orthogonalLoop=1;jettySize=auto;html=1;entryX=0;entryY=0.5;entryDx=0;entryDy=0;shadow=0;strokeColor=#6c8ebf;strokeWidth=1;fontFamily=Ubuntu;fontSize=14;fontStyle=0;endArrow=block;endFill=1;fillColor=#dae8fc;" edge="1" parent="1" source="Y1ht0l0qpF1LJEd9NI-s-2" target="Y1ht0l0qpF1LJEd9NI-s-5">
          <mxGeometry relative="1" as="geometry" />
        </mxCell>
        <mxCell id="Y1ht0l0qpF1LJEd9NI-s-18" style="edgeStyle=orthogonalEdgeStyle;rounded=1;orthogonalLoop=1;jettySize=auto;html=1;shadow=0;strokeColor=#6c8ebf;strokeWidth=1;fontFamily=Ubuntu;fontSize=14;fontStyle=0;endArrow=block;endFill=1;fillColor=#dae8fc;" edge="1" parent="1" source="Y1ht0l0qpF1LJEd9NI-s-6" target="Y1ht0l0qpF1LJEd9NI-s-8">
          <mxGeometry relative="1" as="geometry" />
        </mxCell>
        <mxCell id="Y1ht0l0qpF1LJEd9NI-s-19" style="edgeStyle=orthogonalEdgeStyle;rounded=1;orthogonalLoop=1;jettySize=auto;html=1;entryX=0;entryY=0.5;entryDx=0;entryDy=0;shadow=0;strokeColor=#6c8ebf;strokeWidth=1;fontFamily=Ubuntu;fontSize=14;fontStyle=0;endArrow=block;endFill=1;fillColor=#dae8fc;" edge="1" parent="1" source="Y1ht0l0qpF1LJEd9NI-s-9" target="Y1ht0l0qpF1LJEd9NI-s-11">
          <mxGeometry relative="1" as="geometry" />
        </mxCell>
        <mxCell id="Y1ht0l0qpF1LJEd9NI-s-21" style="edgeStyle=orthogonalEdgeStyle;rounded=1;orthogonalLoop=1;jettySize=auto;html=1;entryX=0;entryY=0;entryDx=0;entryDy=0;shadow=0;strokeColor=#6c8ebf;strokeWidth=1;fontFamily=Ubuntu;fontSize=14;fontStyle=0;endArrow=block;endFill=1;fillColor=#dae8fc;" edge="1" parent="1" source="Y1ht0l0qpF1LJEd9NI-s-20" target="Y1ht0l0qpF1LJEd9NI-s-1">
          <mxGeometry relative="1" as="geometry" />
        </mxCell>
        <mxCell id="Y1ht0l0qpF1LJEd9NI-s-20" value="Head" style="text;html=1;align=center;verticalAlign=middle;whiteSpace=wrap;rounded=0;fontFamily=Ubuntu;fontSize=16;fontStyle=0;" vertex="1" parent="1">
          <mxGeometry x="200" y="120" width="80" height="40" as="geometry" />
        </mxCell>
        <mxCell id="Y1ht0l0qpF1LJEd9NI-s-22" value="Data" style="text;html=1;align=center;verticalAlign=middle;whiteSpace=wrap;rounded=0;fontFamily=Ubuntu;fontSize=16;fontStyle=0;" vertex="1" parent="1">
          <mxGeometry x="230" y="240" width="50" height="40" as="geometry" />
        </mxCell>
        <mxCell id="Y1ht0l0qpF1LJEd9NI-s-24" value="Next" style="text;html=1;align=center;verticalAlign=middle;whiteSpace=wrap;rounded=0;fontFamily=Ubuntu;fontSize=16;fontStyle=0;" vertex="1" parent="1">
          <mxGeometry x="280" y="240" width="50" height="40" as="geometry" />
        </mxCell>
      </root>
    </mxGraphModel>
  </diagram>
</mxfile>
